<svg width="1683" height="341" viewBox="0 0 1683 341" fill="none" xmlns="http://www.w3.org/2000/svg">
<g clip-path="url(#clip0_8770_35647)">
<path fill-rule="evenodd" clip-rule="evenodd" d="M124.418 55.296C139.687 55.296 152.066 42.9176 152.066 27.648C152.066 12.3784 139.687 0 124.418 0C109.148 0 96.7695 12.3784 96.7695 27.648C96.7695 42.9176 109.148 55.296 124.418 55.296ZM237.72 170.497C255.156 162.482 267.263 144.863 267.263 124.416C267.263 96.4219 244.569 73.7281 216.575 73.7281C196.129 73.7281 178.51 85.8336 170.496 103.268C162.481 85.8336 144.862 73.7281 124.417 73.7281C96.4223 73.7281 73.7285 96.4219 73.7285 124.416C73.7285 144.863 85.8354 162.482 103.272 170.497C85.8354 178.511 73.7285 196.13 73.7285 216.577C73.7285 244.571 96.4223 267.265 124.417 267.265C144.862 267.265 162.481 255.16 170.496 237.725C178.51 255.16 196.129 267.265 216.575 267.265C244.569 267.265 267.263 244.571 267.263 216.577C267.263 196.13 255.156 178.511 237.72 170.497ZM170.496 195.429C175.552 184.43 184.43 175.552 195.43 170.497C184.43 165.441 175.552 156.563 170.496 145.564C165.439 156.563 156.561 165.441 145.561 170.497C156.561 175.552 165.439 184.43 170.496 195.429ZM235.009 27.6476C235.009 37.8274 226.756 46.0796 216.577 46.0796C206.397 46.0796 198.145 37.8274 198.145 27.6476C198.145 17.4679 206.397 9.21564 216.577 9.21564C226.756 9.21564 235.009 17.4679 235.009 27.6476ZM27.6508 142.848C37.8305 142.848 46.0828 134.596 46.0828 124.416C46.0828 114.237 37.8305 105.984 27.6508 105.984C17.471 105.984 9.21875 114.237 9.21875 124.416C9.21875 134.596 17.471 142.848 27.6508 142.848ZM142.844 313.343C142.844 323.523 134.592 331.775 124.412 331.775C114.233 331.775 105.98 323.523 105.98 313.343C105.98 303.163 114.233 294.911 124.412 294.911C134.592 294.911 142.844 303.163 142.844 313.343ZM313.344 235.008C323.524 235.008 331.776 226.755 331.776 216.576C331.776 206.396 323.524 198.144 313.344 198.144C303.164 198.144 294.912 206.396 294.912 216.576C294.912 226.755 303.164 235.008 313.344 235.008ZM41.4703 27.649C41.4703 35.2838 35.281 41.473 27.6463 41.473C20.0115 41.473 13.8223 35.2838 13.8223 27.649C13.8223 20.0142 20.0115 13.825 27.6463 13.825C35.281 13.825 41.4703 20.0142 41.4703 27.649ZM27.6463 327.168C35.281 327.168 41.4703 320.979 41.4703 313.344C41.4703 305.71 35.281 299.52 27.6463 299.52C20.0115 299.52 13.8223 305.71 13.8223 313.344C13.8223 320.979 20.0115 327.168 27.6463 327.168ZM327.168 313.344C327.168 320.979 320.978 327.168 313.344 327.168C305.709 327.168 299.52 320.979 299.52 313.344C299.52 305.71 305.709 299.52 313.344 299.52C320.978 299.52 327.168 305.71 327.168 313.344ZM313.344 41.473C320.978 41.473 327.168 35.2838 327.168 27.649C327.168 20.0142 320.978 13.825 313.344 13.825C305.709 13.825 299.52 20.0142 299.52 27.649C299.52 35.2838 305.709 41.473 313.344 41.473ZM244.224 313.343C244.224 328.613 231.845 340.991 216.576 340.991C201.306 340.991 188.928 328.613 188.928 313.343C188.928 298.074 201.306 285.695 216.576 285.695C231.845 285.695 244.224 298.074 244.224 313.343ZM313.345 152.065C328.615 152.065 340.993 139.686 340.993 124.417C340.993 109.147 328.615 96.7687 313.345 96.7687C298.076 96.7687 285.697 109.147 285.697 124.417C285.697 139.686 298.076 152.065 313.345 152.065ZM55.296 216.576C55.296 231.846 42.9176 244.224 27.648 244.224C12.3784 244.224 0 231.846 0 216.576C0 201.307 12.3784 188.928 27.648 188.928C42.9176 188.928 55.296 201.307 55.296 216.576ZM1682.84 281.087H1633.17V63.6813H1682.84V281.087ZM1393.7 281.087H1445.63L1458.85 236.573H1534.98L1548.2 281.087H1601.43L1528.85 63.6813H1466.27L1393.7 281.087ZM1470.79 196.576C1486.92 141.526 1495.63 109.27 1496.92 99.808C1499.93 115.076 1508.64 147.332 1523.04 196.576H1470.79ZM1284.55 281.089H1237.46V53.0391H1284.55V281.089ZM1148.31 281.089H1195.41V53.0391H1148.31V281.089ZM1044.06 151.743C1036.53 151.743 1029.87 154.539 1024.06 160.13C1018.26 165.506 1014.39 173.57 1012.45 184.322H1069.22V180.451C1067.72 161.313 1059.33 151.743 1044.06 151.743ZM1103.09 271.736C1091.91 279.047 1073.84 282.703 1048.9 282.703C1023.95 282.703 1003.96 274.961 988.903 259.478C974.065 243.78 966.646 223.352 966.646 198.192C966.646 172.817 973.85 152.818 988.258 138.196C1002.88 123.358 1020.94 115.939 1042.45 115.939C1064.17 115.939 1081.37 122.39 1094.06 135.293C1106.75 147.98 1113.09 167.011 1113.09 192.386C1113.09 197.332 1112.23 205.826 1110.51 217.868H1014.39C1017.61 226.9 1023.2 233.889 1031.16 238.834C1039.11 243.78 1048.68 246.253 1059.87 246.253C1076.42 246.253 1090.83 241.63 1103.09 232.383V271.736ZM857.705 226.897C857.705 264.099 876.306 282.7 913.508 282.7C927.055 282.7 937.807 280.98 945.764 277.539V238.509C939.098 242.81 932.216 244.961 925.12 244.961C918.239 244.961 913.078 243.455 909.637 240.445C906.412 237.434 904.799 233.026 904.799 227.22V152.063H942.861V117.549H904.799V78.8422H857.705V117.549H834.158V152.063H857.705V226.897ZM747.645 151.743C740.118 151.743 733.452 154.539 727.646 160.13C721.84 165.506 717.969 173.57 716.034 184.322H772.805V180.451C771.299 161.313 762.913 151.743 747.645 151.743ZM806.673 271.736C795.491 279.047 777.428 282.703 752.483 282.703C727.539 282.703 707.54 274.961 692.487 259.478C677.649 243.78 670.23 223.352 670.23 198.192C670.23 172.817 677.434 152.818 691.842 138.196C706.465 123.358 724.528 115.939 746.032 115.939C767.751 115.939 784.954 122.39 797.642 135.293C810.329 147.98 816.673 167.011 816.673 192.386C816.673 197.332 815.813 205.826 814.092 217.868H717.969C721.195 226.9 726.786 233.889 734.742 238.834C742.699 243.78 752.268 246.253 763.45 246.253C780.008 246.253 794.416 241.63 806.673 232.383V271.736ZM481.771 281.087H531.446V205.608H546.606L593.7 281.087H653.051L597.893 197.544C624.343 185.716 637.568 164.32 637.568 133.354C637.568 112.71 630.149 95.9373 615.311 83.0349C600.689 70.1325 581.228 63.6813 556.928 63.6813H481.771V281.087ZM531.446 104.001H555.96C565.637 104.001 573.271 106.689 578.862 112.065C584.453 117.226 587.249 124.43 587.249 133.677C587.249 154.751 576.497 165.288 554.993 165.288H531.446V104.001Z" fill="black"/>
</g>
<defs>
<clipPath id="clip0_8770_35647">
<rect width="1682.84" height="340.992" fill="white"/>
</clipPath>
</defs>
</svg>
